<svg width="163" height="163" viewBox="0 0 163 163" fill="none" xmlns="http://www.w3.org/2000/svg">
<g clip-path="url(#clip0_3_1753)">
<path d="M162.646 81.3232C162.646 36.5141 126.132 0 81.3232 0C36.4328 0 0 36.5141 0 81.3232C0 126.214 36.4328 162.646 81.3232 162.646C126.132 162.646 162.646 126.214 162.646 81.3232ZM63.2694 124.994L35.5382 50.583C40.011 50.4204 45.053 49.9324 45.053 49.9324C49.1192 49.4445 48.6313 40.7429 44.5651 40.9056C44.5651 40.9056 32.7732 41.8001 25.2915 41.8001C23.8277 41.8001 22.2825 41.8001 20.5748 41.7188C27.1638 31.6289 36.1757 23.3506 46.7875 17.6399C57.3992 11.9291 69.2725 8.968 81.3232 9.02687C100.271 9.02687 117.512 16.102 130.524 28.0565C124.994 27.1619 117.105 31.2281 117.105 40.9056C117.105 46.9235 120.765 51.9655 124.424 57.9834C127.271 62.9441 128.897 69.0434 128.897 77.9889C128.897 90.1061 117.512 118.65 117.512 118.65L92.8711 50.583C97.2625 50.4204 99.5396 49.2005 99.5396 49.2005C103.606 48.7939 103.118 39.0351 99.0516 39.2791C99.0516 39.2791 87.3411 40.255 79.6967 40.255C72.6216 40.255 60.7484 39.2791 60.7484 39.2791C56.6822 39.0351 56.1943 49.0379 60.2605 49.2005L67.7422 49.8511L77.9889 77.5823L63.2694 124.994ZM141.584 81.3232C143.535 76.1185 147.602 66.1157 145.081 46.7608C150.773 57.2515 153.619 68.7994 153.619 81.3232C153.619 108.078 139.551 132.069 117.837 144.593C125.726 123.53 133.614 102.305 141.584 81.3232ZM49.6071 147.114C25.3728 135.403 9.02687 110.03 9.02687 81.3232C9.02687 70.7512 10.8973 61.155 14.8821 52.1281C26.43 83.7629 37.9779 115.479 49.6071 147.114ZM82.3804 93.1964L103.362 149.96C96.368 152.318 89.0489 153.619 81.3232 153.619C74.8986 153.619 68.5554 152.725 62.7002 150.936C69.2873 131.581 75.8745 112.389 82.3804 93.1964Z" fill="white"/>
</g>
<defs>
<clipPath id="clip0_3_1753">
<rect width="162.646" height="162.646" fill="white"/>
</clipPath>
</defs>
</svg>
